<?xml version="1.0" encoding="UTF-8" standalone="no"?>
<svg
   version="1.1"
   x="0px"
   y="0px"
   viewBox="0 0 38 38"
   enable-background="new 0 0 40 40"
   xml:space="preserve"
   id="svg43497"
   sodipodi:docname="close.svg"
   width="38"
   height="38"
   inkscape:version="1.1.1 (3bf5ae0d25, 2021-09-20)"
   xmlns:inkscape="http://www.inkscape.org/namespaces/inkscape"
   xmlns:sodipodi="http://sodipodi.sourceforge.net/DTD/sodipodi-0.dtd"
   xmlns="http://www.w3.org/2000/svg"
   xmlns:svg="http://www.w3.org/2000/svg"><defs
     id="defs43501" /><sodipodi:namedview
     id="namedview43499"
     pagecolor="#505050"
     bordercolor="#eeeeee"
     borderopacity="1"
     inkscape:pageshadow="0"
     inkscape:pageopacity="0"
     inkscape:pagecheckerboard="0"
     showgrid="false"
     inkscape:zoom="12.6"
     inkscape:cx="4.5634921"
     inkscape:cy="23.849206"
     inkscape:window-width="1920"
     inkscape:window-height="1007"
     inkscape:window-x="0"
     inkscape:window-y="0"
     inkscape:window-maximized="1"
     inkscape:current-layer="svg43497" /><circle
     fill="none"
     stroke="#000000"
     stroke-width="3"
     stroke-miterlimit="10"
     cx="19"
     cy="19"
     r="17.5"
     id="circle43487" /><line
     fill="none"
     stroke="#000000"
     stroke-width="4"
     stroke-miterlimit="10"
     x1="10.162"
     y1="27.838001"
     x2="27.84"
     y2="10.160001"
     id="line43489" /><line
     fill="none"
     stroke="#000000"
     stroke-width="4"
     stroke-miterlimit="10"
     x1="27.84"
     y1="27.838001"
     x2="10.162"
     y2="10.160001"
     id="line43491"
     style="fill:#e5e2e2;fill-opacity:1" /><path
     style="fill:#e5e2e2;fill-opacity:1;fill-rule:evenodd;stroke-width:0.0793651"
     d="M 10.198309,27.777674 8.8104809,26.388144 12.520216,22.678409 16.229952,18.968673 12.52004,15.258132 8.810128,11.54759 10.178964,10.178754 11.5478,8.8099175 l 3.710018,3.7100175 3.710017,3.710017 3.710259,-3.709631 3.710261,-3.7096298 1.389424,1.3877228 1.389425,1.387723 -3.710269,3.7109 -3.71027,3.7109 3.709988,3.710618 3.709988,3.710617 -1.368735,1.368734 -1.368734,1.368735 -3.710617,-3.709988 -3.710618,-3.709988 -3.7109,3.71027 -3.7109,3.710269 z"
     id="path43847" /><path
     style="fill:#e5e2e2;fill-opacity:1;fill-rule:evenodd;stroke-width:0.0793651"
     d="M 17.738095,37.922243 C 11.804689,37.486691 6.4813392,34.38553 3.2091321,29.458275 -1.3612156,22.576295 -0.92399452,13.486416 4.2864104,7.0615267 5.0555956,6.1130533 6.6421794,4.579974 7.5793651,3.8796206 12.102094,0.49981129 17.711131,-0.70358009 23.237885,0.52016198 c 1.920821,0.42531104 4.425056,1.49174482 6.087512,2.59237892 4.748686,3.1438832 7.726583,7.9051771 8.502093,13.5938081 0.15192,1.114374 0.13062,3.725729 -0.03949,4.84127 -0.655226,4.296907 -2.437189,7.870802 -5.403387,10.836998 -3.876385,3.876386 -9.306919,5.929588 -14.646522,5.537626 z m 2.823518,-2.968127 C 29.926787,34.0298 36.474183,25.302563 34.757657,16.031746 33.969197,11.773333 31.38704,7.9276817 27.698413,5.5182904 26.76896,4.9111766 25.136661,4.1334499 24.047619,3.7788294 17.083998,1.5112925 9.5668873,4.1432287 5.5662179,10.249648 c -3.80717,5.811073 -3.3810392,13.52525 1.0461503,18.938291 0.6082678,0.743717 1.9576945,2.038942 2.7227818,2.613417 3.222552,2.419689 7.2355,3.546657 11.226463,3.15276 z"
     id="path43886" /></svg>
