<?xml version="1.0" encoding="UTF-8" standalone="no"?>
<!-- Created with Inkscape (http://www.inkscape.org/) -->

<svg
   width="24.023951mm"
   height="23.777035mm"
   viewBox="0 0 24.023951 23.777035"
   version="1.1"
   id="svg40661"
   inkscape:version="1.1.1 (3bf5ae0d25, 2021-09-20)"
   sodipodi:docname="garage_door_open.svg"
   xmlns:inkscape="http://www.inkscape.org/namespaces/inkscape"
   xmlns:sodipodi="http://sodipodi.sourceforge.net/DTD/sodipodi-0.dtd"
   xmlns="http://www.w3.org/2000/svg"
   xmlns:svg="http://www.w3.org/2000/svg">
  <sodipodi:namedview
     id="namedview40663"
     pagecolor="#505050"
     bordercolor="#eeeeee"
     borderopacity="1"
     inkscape:pageshadow="0"
     inkscape:pageopacity="0"
     inkscape:pagecheckerboard="0"
     inkscape:document-units="mm"
     showgrid="false"
     inkscape:zoom="4.489899"
     inkscape:cx="2.1158605"
     inkscape:cy="39.087739"
     inkscape:window-width="1920"
     inkscape:window-height="1007"
     inkscape:window-x="0"
     inkscape:window-y="0"
     inkscape:window-maximized="1"
     inkscape:current-layer="layer1" />
  <defs
     id="defs40658" />
  <g
     inkscape:label="Layer 1"
     inkscape:groupmode="layer"
     id="layer1"
     transform="translate(-16.745166,-151.22577)">
    <path
       d="m 20.486267,164.56764 v 2.46313 c -1e-6,0.21919 0.177686,0.485 0.396875,0.485 l 15.747999,-2.9e-4 c 0.219189,-1e-5 0.396876,-0.26551 0.396875,-0.4847 v -2.46313 c 0,-0.21919 -0.177687,-0.39688 -0.396875,-0.39688 H 20.883142 c -0.219188,0 -0.396875,0.17769 -0.396875,0.39688 z m 15.747999,0.39952 v 1.71714 H 21.280017 v -1.71714 z"
       id="path61"
       sodipodi:nodetypes="scsscssssccccc"
       style="stroke-width:0.264583" />
    <path
       d="m 40.536391,162.68116 -11.615208,-5.31548 a 0.39422916,0.39422916 0 0 0 -0.328083,0 l -11.615208,5.31548 a 0.3972144,0.3972144 0 1 0 0.330729,0.72231 l 0.619125,-0.2884 v 11.49086 a 0.396875,0.396875 0 0 0 0.396875,0.39687 h 20.865041 a 0.396875,0.396875 0 0 0 0.396875,-0.39687 v -11.49086 l 0.619125,0.28311 a 0.3972144,0.3972144 0 1 0 0.330729,-0.72231 z m -1.743604,11.52789 H 18.721496 v -11.45381 l 10.035645,-4.59317 10.035646,4.59317 z"
       id="path63"
       style="stroke-width:0.264583" />
    <path
       d="m 24.523808,153.0953 a 8.2020832,8.2020832 0 0 1 4.233333,-1.07421 8.2020832,8.2020832 0 0 1 4.233334,1.07421 0.39728269,0.39728269 0 1 0 0.415396,-0.67733 9.0143541,9.0143541 0 0 0 -4.64873,-1.19063 9.0143541,9.0143541 0 0 0 -4.648729,1.19063 0.39728269,0.39728269 0 1 0 0.415396,0.67733 z"
       id="path65"
       style="stroke-width:0.264583" />
    <path
       d="m 31.850121,154.87066 a 0.396875,0.396875 0 0 0 0.206375,-0.73554 6.3949791,6.3949791 0 0 0 -3.299355,-0.84667 6.3949791,6.3949791 0 0 0 -3.299354,0.84667 0.396875,0.396875 0 1 0 0.41275,0.67733 5.6038749,5.6038749 0 0 1 2.886604,-0.73025 5.6038749,5.6038749 0 0 1 2.886605,0.73025 0.38629166,0.38629166 0 0 0 0.206375,0.0582 z"
       id="path67"
       style="stroke-width:0.264583" />
    <path
       d="m 28.757141,155.30193 a 3.8814375,3.8814375 0 0 0 -2.021416,0.52916 0.396875,0.396875 0 0 0 -0.127,0.54769 0.39158333,0.39158333 0 0 0 0.336021,0.18786 0.39952083,0.39952083 0 0 0 0.209021,-0.0609 3.3602083,3.3602083 0 0 1 3.190874,-0.005 0.396875,0.396875 0 1 0 0.415396,-0.67469 3.8655625,3.8655625 0 0 0 -2.002896,-0.52387 z"
       id="path69"
       style="stroke-width:0.264583" />
    <path
       id="rect40452"
       style="stroke-width:0.260137"
       d="m 20.488679,167.15164 h 16.489552 v 7.10109 H 20.488679 Z" />
  </g>
</svg>
