<?xml version="1.0" encoding="UTF-8" standalone="no"?>
<!-- Created with Inkscape (http://www.inkscape.org/) -->

<svg
   width="24.023935mm"
   height="23.777035mm"
   viewBox="0 0 24.023936 23.777035"
   version="1.1"
   id="svg40661"
   sodipodi:docname="garage_door_close.svg"
   inkscape:version="1.1.1 (3bf5ae0d25, 2021-09-20)"
   xmlns:inkscape="http://www.inkscape.org/namespaces/inkscape"
   xmlns:sodipodi="http://sodipodi.sourceforge.net/DTD/sodipodi-0.dtd"
   xmlns="http://www.w3.org/2000/svg"
   xmlns:svg="http://www.w3.org/2000/svg">
  <sodipodi:namedview
     id="namedview40663"
     pagecolor="#505050"
     bordercolor="#eeeeee"
     borderopacity="1"
     inkscape:pageshadow="0"
     inkscape:pageopacity="0"
     inkscape:pagecheckerboard="0"
     inkscape:document-units="mm"
     showgrid="false"
     inkscape:zoom="4.489899"
     inkscape:cx="77.841395"
     inkscape:cy="76.727784"
     inkscape:window-width="1920"
     inkscape:window-height="1007"
     inkscape:window-x="0"
     inkscape:window-y="0"
     inkscape:window-maximized="1"
     inkscape:current-layer="layer1" />
  <defs
     id="defs40658" />
  <g
     inkscape:label="Layer 1"
     inkscape:groupmode="layer"
     id="layer1"
     transform="translate(3.2810812,-141.22297)">
    <path
       d="m 0.4600036,154.56484 v 7.54327 a 0.396875,0.396875 0 0 0 0.39687499,0.39687 H 16.604878 a 0.396875,0.396875 0 0 0 0.396875,-0.39687 v -7.54327 a 0.396875,0.396875 0 0 0 -0.396875,-0.39688 H 0.85687859 a 0.396875,0.396875 0 0 0 -0.39687499,0.39688 z m 0.79375,2.91041 H 16.208003 v 1.72244 H 1.2537536 Z m 0,4.23334 v -1.71715 H 16.208003 v 1.71715 z m 14.9542494,-6.74423 v 1.71714 H 1.2537536 v -1.71714 z"
       id="path61"
       style="stroke-width:0.264583" />
    <path
       d="M 20.510128,152.67836 8.8949202,147.36288 a 0.39422916,0.39422916 0 0 0 -0.3280834,0 l -11.6152082,5.31548 a 0.3972144,0.3972144 0 1 0 0.3307292,0.72231 l 0.6191249,-0.2884 v 11.49086 A 0.396875,0.396875 0 0 0 -1.7016422,165 H 19.163399 a 0.396875,0.396875 0 0 0 0.396875,-0.39687 v -11.49086 l 0.619125,0.28311 a 0.3972144,0.3972144 0 1 0 0.330729,-0.72231 z m -1.743604,11.52789 H -1.3047672 v -11.45381 l 10.0356457,-4.59317 10.0356455,4.59317 z"
       id="path63"
       style="stroke-width:0.264583" />
    <path
       d="m 4.4975452,143.0925 a 8.2020832,8.2020832 0 0 1 4.2333333,-1.07421 8.2020832,8.2020832 0 0 1 4.2333335,1.07421 0.39728269,0.39728269 0 1 0 0.415396,-0.67733 9.0143541,9.0143541 0 0 0 -4.6487295,-1.19063 9.0143541,9.0143541 0 0 0 -4.6487291,1.19063 0.39728269,0.39728269 0 1 0 0.4153958,0.67733 z"
       id="path65"
       style="stroke-width:0.264583" />
    <path
       d="m 11.823858,144.86786 a 0.396875,0.396875 0 0 0 0.206375,-0.73554 6.3949791,6.3949791 0 0 0 -3.2993545,-0.84667 6.3949791,6.3949791 0 0 0 -3.2993541,0.84667 0.396875,0.396875 0 1 0 0.41275,0.67733 5.6038749,5.6038749 0 0 1 2.8866041,-0.73025 5.6038749,5.6038749 0 0 1 2.8866045,0.73025 0.38629166,0.38629166 0 0 0 0.206375,0.0582 z"
       id="path67"
       style="stroke-width:0.264583" />
    <path
       d="m 8.7308785,145.29913 a 3.8814375,3.8814375 0 0 0 -2.0214166,0.52916 0.396875,0.396875 0 0 0 -0.127,0.54769 0.39158333,0.39158333 0 0 0 0.3360208,0.18786 0.39952083,0.39952083 0 0 0 0.2090208,-0.0609 3.3602083,3.3602083 0 0 1 3.1908745,-0.005 0.396875,0.396875 0 1 0 0.415396,-0.67469 3.8655625,3.8655625 0 0 0 -2.0028955,-0.52387 z"
       id="path69"
       style="stroke-width:0.264583" />
    <path
       d="m 0.45884896,157.00933 v 7.54327 c -2.65e-6,0.21919 0.17768622,0.39688 0.39687499,0.39688 H 16.603724 c 0.219186,0 0.396875,-0.17769 0.396875,-0.39688 v -7.54327 c 0,-0.21918 -0.177689,-0.39687 -0.396875,-0.39687 H 0.85572395 c -0.21918877,0 -0.39687499,0.17769 -0.39687499,0.39687 z m 0.79374994,2.91042 H 16.206849 v 1.72244 H 1.2525989 Z m 0,4.23333 v -1.71714 H 16.206849 v 1.71714 z M 16.206849,157.40885 V 159.126 H 1.2525989 v -1.71715 z"
       id="path34661"
       sodipodi:nodetypes="scsssssssccccccccccccccc"
       style="stroke-width:0.264583" />
  </g>
</svg>
