<?xml version="1.0" encoding="UTF-8" standalone="no"?>
<svg
   data-name="Layer 1"
   viewBox="0 0 95.580002 95.580002"
   x="0px"
   y="0px"
   version="1.1"
   id="svg42495"
   sodipodi:docname="question.svg"
   width="95.580002"
   height="95.580002"
   inkscape:version="1.1.1 (3bf5ae0d25, 2021-09-20)"
   xmlns:inkscape="http://www.inkscape.org/namespaces/inkscape"
   xmlns:sodipodi="http://sodipodi.sourceforge.net/DTD/sodipodi-0.dtd"
   xmlns="http://www.w3.org/2000/svg"
   xmlns:svg="http://www.w3.org/2000/svg"
   xmlns:rdf="http://www.w3.org/1999/02/22-rdf-syntax-ns#"
   xmlns:cc="http://creativecommons.org/ns#"
   xmlns:dc="http://purl.org/dc/elements/1.1/">
  <defs
     id="defs42499" />
  <sodipodi:namedview
     id="namedview42497"
     pagecolor="#505050"
     bordercolor="#eeeeee"
     borderopacity="1"
     inkscape:pageshadow="0"
     inkscape:pageopacity="0"
     inkscape:pagecheckerboard="0"
     showgrid="false"
     inkscape:zoom="5.04"
     inkscape:cx="47.718254"
     inkscape:cy="60.218254"
     inkscape:window-width="1920"
     inkscape:window-height="1007"
     inkscape:window-x="0"
     inkscape:window-y="0"
     inkscape:window-maximized="1"
     inkscape:current-layer="svg42495" />
  <title
     id="title42487">Artboard 2</title>
  <path
     d="M 47.79,95.58 A 47.79,47.79 0 1 0 0,47.79 47.85,47.85 0 0 0 47.79,95.58 Z m 0,-86.25 A 38.45,38.45 0 1 1 9.34,47.79 38.49,38.49 0 0 1 47.79,9.34 Z m 4.35,61.88 a 4.94,4.94 0 1 1 -4.94,-4.94 4.94,4.94 0 0 1 4.94,4.95 z M 31.79,32.71 A 4.89,4.89 0 0 1 32,28.96 16.72,16.72 0 0 1 47,19.43 h 0.1 a 17,17 0 0 1 16.92,16.36 16.75,16.75 0 0 1 -11.41,16.4 c 0,0 -0.49,0.17 -0.49,0.46 v 3.92 a 4.915,4.915 0 0 1 -9.83,0 v -3.92 a 10.39,10.39 0 0 1 7.16,-9.77 7,7 0 0 0 4.75,-6.85 7.17,7.17 0 0 0 -7.06,-6.79 7,7 0 0 0 -6.25,4 4.91,4.91 0 0 1 -9.1,-0.53 z"
     id="path42489"
     style="fill:#ffffff" />
  <metadata
     id="metadata42721">
    <rdf:RDF>
      <cc:Work
         rdf:about="">
        <dc:title>Artboard 2</dc:title>
      </cc:Work>
    </rdf:RDF>
  </metadata>
</svg>
