<?xml version="1.0" encoding="UTF-8"?>
<svg width="392.45" height="511.98" enable-background="new 0 0 512 512" version="1.1" viewBox="0 0 392.45 511.98" xml:space="preserve" xmlns="http://www.w3.org/2000/svg"><g transform="translate(-59.775 -.009)"><path d="m177.66 237.42-0.156-100.92c0-20.937 8.156-40.655 22.999-55.498 14.812-14.812 34.53-22.999 55.498-22.999s40.687 8.188 55.497 22.999c14.813 14.843 22.982 34.562 22.982 55.498v61.436h58.029v-61.436c1e-3 -75.372-61.122-136.5-136.51-136.5-75.403 0-136.51 61.123-136.51 136.5v102.29z"/><path d="m59.775 237.19v274.8h392.45v-274.8zm215.85 153.37v51.404h-39.247v-51.404c-13.296-7.063-22.374-21.031-22.374-37.154 0-23.154 18.812-41.969 41.998-41.969s41.982 18.813 41.982 41.969c0 16.122-9.078 30.091-22.359 37.154z"/></g></svg>
